<?xml version="1.0" encoding="UTF-8"?>
<svg width="500px" height="200px" viewBox="0 0 500 200" version="1.1" xmlns="http://www.w3.org/2000/svg" xmlns:xlink="http://www.w3.org/1999/xlink">
    <title>valuerebels--white--transparent</title>
    <g id="valuerebels--white--transparent" stroke="none" stroke-width="1" fill="none" fill-rule="evenodd">
        <path d="M247,71 C263.568542,71 277,84.4314575 277,101 C277,117.568542 263.568542,131 247,131 C230.431458,131 217,117.568542 217,101 C217,84.4314575 230.431458,71 247,71 Z M259.367188,85 L248.140625,85 L247.720536,85.0023244 C238.688095,85.1030475 234.171875,88.4772727 234.171875,95.125 C234.171875,99.09375 236.109375,102.164062 239.984375,104.335938 L239.984375,104.335938 L230,119.265625 L240.5,119.265625 L247.765625,106.796875 L250.109375,106.796875 L250.109375,119.265625 L259.367188,119.265625 L259.367188,85 Z M250.109375,92.0078125 L250.109375,99.8359375 L248.375,99.8359375 C245.140625,99.8359375 243.523438,98.40625 243.523438,95.546875 C243.523438,93.1875 245.109375,92.0078125 248.28125,92.0078125 L248.28125,92.0078125 L250.109375,92.0078125 Z" id="Combined-Shape" fill="#EC3047"></path>
        <path d="M81.078125,119 L92.3046875,84.734375 L81.9453125,84.734375 L77.1875,102.195312 C76.9375,103.132812 76.6484375,104.421875 76.3203125,106.0625 C75.9921875,107.703125 75.7734375,109.070312 75.6640625,110.164062 C75.5703125,108.648438 75.0390625,105.960938 74.0703125,102.101562 L74.0703125,102.101562 L69.40625,84.734375 L59,84.734375 L70.1796875,119 L81.078125,119 Z M100.554688,119 L102.289062,112.578125 L113.421875,112.578125 L115.109375,119 L125.234375,119 L113.914062,84.59375 L101.5625,84.59375 L90.3828125,119 L100.554688,119 Z M111.5,104.984375 L104.210938,104.984375 C105.632812,99.609375 106.550781,96.0078125 106.964844,94.1796875 C107.378906,92.3515625 107.65625,91.0390625 107.796875,90.2421875 C107.953125,91.1015625 108.277344,92.5234375 108.769531,94.5078125 C109.261719,96.4921875 109.679688,98.109375 110.023438,99.359375 L110.023438,99.359375 L111.5,104.984375 Z M151.390625,119 L151.390625,111.523438 L138.195312,111.523438 L138.195312,84.734375 L128.9375,84.734375 L128.9375,119 L151.390625,119 Z M168.95,119.46875 C173.73125,119.46875 177.391406,118.238281 179.930469,115.777344 C182.469531,113.316406 183.739062,109.84375 183.739062,105.359375 L183.739062,105.359375 L183.739062,84.734375 L174.48125,84.734375 L174.48125,104.796875 C174.48125,107.265625 174.055469,109.042969 173.203906,110.128906 C172.352344,111.214844 170.98125,111.757812 169.090625,111.757812 C167.325,111.757812 165.989062,111.210938 165.082812,110.117188 C164.176562,109.023438 163.723437,107.265625 163.723437,104.84375 L163.723437,104.84375 L163.723437,84.734375 L154.41875,84.734375 L154.41875,105.570312 C154.41875,110.054688 155.672656,113.492188 158.180469,115.882812 C160.688281,118.273438 164.278125,119.46875 168.95,119.46875 Z M210.578125,119 L210.578125,111.453125 L199.492188,111.453125 L199.492188,104.984375 L209.757812,104.984375 L209.757812,97.5546875 L199.492188,97.5546875 L199.492188,92.1640625 L210.578125,92.1640625 L210.578125,84.734375 L190.234375,84.734375 L190.234375,119 L210.578125,119 Z" id="VALUE" fill="#FFFFFF" fill-rule="nonzero"></path>
        <path d="M304.046875,119 L304.046875,111.453125 L292.960938,111.453125 L292.960938,104.984375 L303.226562,104.984375 L303.226562,97.5546875 L292.960938,97.5546875 L292.960938,92.1640625 L304.046875,92.1640625 L304.046875,84.734375 L283.703125,84.734375 L283.703125,119 L304.046875,119 Z M324.382812,119 C328.414062,119 331.597656,118.105469 333.933594,116.316406 C336.269531,114.527344 337.4375,112.078125 337.4375,108.96875 C337.4375,106.875 336.960938,105.171875 336.007812,103.859375 C335.054688,102.546875 333.515625,101.609375 331.390625,101.046875 L331.390625,101.046875 L331.390625,100.8125 C333,100.421875 334.296875,99.546875 335.28125,98.1875 C336.265625,96.828125 336.757812,95.1875 336.757812,93.265625 C336.757812,90.34375 335.628906,88.1914062 333.371094,86.8085938 C331.113281,85.4257812 327.65625,84.734375 323,84.734375 L323,84.734375 L311.046875,84.734375 L311.046875,119 L324.382812,119 Z M323.09375,97.8828125 L320.304688,97.8828125 L320.304688,91.7421875 L322.90625,91.7421875 C325.8125,91.7421875 327.265625,92.703125 327.265625,94.625 C327.265625,95.703125 326.902344,96.515625 326.175781,97.0625 C325.449219,97.609375 324.421875,97.8828125 323.09375,97.8828125 L323.09375,97.8828125 Z M323.5625,111.851562 L320.304688,111.851562 L320.304688,104.65625 L323.375,104.65625 C324.84375,104.65625 325.964844,104.960938 326.738281,105.570312 C327.511719,106.179688 327.898438,107.054688 327.898438,108.195312 C327.898438,110.632812 326.453125,111.851562 323.5625,111.851562 L323.5625,111.851562 Z M363.734375,119 L363.734375,111.453125 L352.648438,111.453125 L352.648438,104.984375 L362.914062,104.984375 L362.914062,97.5546875 L352.648438,97.5546875 L352.648438,92.1640625 L363.734375,92.1640625 L363.734375,84.734375 L343.390625,84.734375 L343.390625,119 L363.734375,119 Z M393.1875,119 L393.1875,111.523438 L379.992188,111.523438 L379.992188,84.734375 L370.734375,84.734375 L370.734375,119 L393.1875,119 Z M407.648438,119.46875 C410.382812,119.46875 412.765625,119.011719 414.796875,118.097656 C416.828125,117.183594 418.382812,115.902344 419.460938,114.253906 C420.539062,112.605469 421.078125,110.71875 421.078125,108.59375 C421.078125,106.28125 420.503906,104.363281 419.355469,102.839844 C418.207031,101.316406 416.15625,99.890625 413.203125,98.5625 C410.125,97.15625 408.238281,96.1875 407.542969,95.65625 C406.847656,95.125 406.5,94.5234375 406.5,93.8515625 C406.5,93.2265625 406.773438,92.703125 407.320312,92.28125 C407.867188,91.859375 408.742188,91.6484375 409.945312,91.6484375 C412.273438,91.6484375 415.039062,92.3828125 418.242188,93.8515625 L418.242188,93.8515625 L421.078125,86.703125 C417.390625,85.0625 413.773438,84.2421875 410.226562,84.2421875 C406.210938,84.2421875 403.054688,85.125 400.757812,86.890625 C398.460938,88.65625 397.3125,91.1171875 397.3125,94.2734375 C397.3125,95.9609375 397.582031,97.421875 398.121094,98.65625 C398.660156,99.890625 399.488281,100.984375 400.605469,101.9375 C401.722656,102.890625 403.398438,103.875 405.632812,104.890625 C408.101562,106 409.621094,106.734375 410.191406,107.09375 C410.761719,107.453125 411.175781,107.808594 411.433594,108.160156 C411.691406,108.511719 411.820312,108.921875 411.820312,109.390625 C411.820312,110.140625 411.5,110.753906 410.859375,111.230469 C410.21875,111.707031 409.210938,111.945312 407.835938,111.945312 C406.242188,111.945312 404.492188,111.691406 402.585938,111.183594 C400.679688,110.675781 398.84375,109.96875 397.078125,109.0625 L397.078125,109.0625 L397.078125,117.3125 C398.75,118.109375 400.359375,118.667969 401.90625,118.988281 C403.453125,119.308594 405.367188,119.46875 407.648438,119.46875 Z" id="EBELS" fill="#FFFFFF" fill-rule="nonzero"></path>
    </g>
</svg>