<?xml version="1.0" encoding="UTF-8"?>
<svg width="80px" height="80px" viewBox="0 0 80 80" version="1.1" xmlns="http://www.w3.org/2000/svg" xmlns:xlink="http://www.w3.org/1999/xlink">
    <title>brand--transparent</title>
    <g id="brand--transparent" stroke="none" stroke-width="1" fill="none" fill-rule="evenodd">
        <path d="M40,10 C56.5685425,10 70,23.4314575 70,40 C70,56.5685425 56.5685425,70 40,70 C23.4314575,70 10,56.5685425 10,40 C10,23.4314575 23.4314575,10 40,10 Z M52.3671875,24 L41.140625,24 L40.7205363,24.0023244 C31.6880954,24.1030475 27.171875,27.4772727 27.171875,34.125 C27.171875,38.09375 29.109375,41.1640625 32.984375,43.3359375 L32.984375,43.3359375 L23,58.265625 L33.5,58.265625 L40.765625,45.796875 L43.109375,45.796875 L43.109375,58.265625 L52.3671875,58.265625 L52.3671875,24 Z M43.109375,31.0078125 L43.109375,38.8359375 L41.375,38.8359375 C38.140625,38.8359375 36.5234375,37.40625 36.5234375,34.546875 C36.5234375,32.1875 38.109375,31.0078125 41.28125,31.0078125 L41.28125,31.0078125 L43.109375,31.0078125 Z" id="Combined-Shape" fill="#EC3047"></path>
    </g>
</svg>